<svg width="1239" height="305" viewBox="0 0 1239 305" fill="none" xmlns="http://www.w3.org/2000/svg">
<g clip-path="url(#clip0_2_10)">
<path d="M420.228 72.0928C420.228 72.0928 419.711 72.0928 419.505 72.0928C419.298 72.0928 418.989 72.0928 418.782 72.0928C370.564 72.0928 340.519 102.149 340.519 150.589V176.72C340.519 225.161 370.461 255.217 418.782 255.217C418.989 255.217 419.298 255.217 419.505 255.217C419.711 255.217 420.021 255.217 420.228 255.217C468.445 255.217 498.491 225.161 498.491 176.72V150.589C498.491 102.149 468.445 72.0928 420.228 72.0928ZM464.728 178.579C464.728 210.391 448.208 228.776 419.505 229.086C390.801 228.776 374.281 210.391 374.281 178.579V148.833C374.281 117.022 390.801 98.637 419.505 98.3271C448.208 98.637 464.728 117.022 464.728 148.833V178.579ZM883.614 118.778C883.614 118.778 882.994 118.778 882.684 118.778C882.478 118.778 882.375 118.778 882.168 118.778C863.893 118.778 850.883 124.975 844.482 136.852L842.52 140.467V121.876H811.339V251.602H844.069V174.345C844.069 156.167 853.878 145.735 870.811 145.425C887.021 145.735 896.313 155.96 896.313 173.622V251.602H929.044V168.044C929.044 137.162 912.111 118.778 883.717 118.778H883.614ZM1239 100.496V75.7078H1131V100.496H1168.89V226.71H1131V251.498H1239V226.71H1201.11V100.496H1239ZM1045.41 75.7078H1011.54L948.558 251.705H983.973L996.053 214.006H1064.82V214.419L1076.9 251.808H1112.31L1049.23 75.811H1045.51L1045.41 75.7078ZM1003.8 189.114L1030.33 105.97L1056.66 189.114H1003.8ZM596.475 118.778C596.475 118.778 595.959 118.778 595.753 118.778C595.443 118.778 595.236 118.778 595.03 118.778C578.613 118.778 564.468 125.594 557.034 136.956L555.175 139.848V121.876H523.994V296.324H556.724V235.386L558.583 238.175C565.604 248.606 579.336 254.804 595.34 254.804C595.649 254.804 595.856 254.804 596.166 254.804C596.372 254.804 596.579 254.804 596.888 254.804C623.837 254.804 650.991 237.245 650.991 197.894V175.791C650.991 147.491 634.265 118.881 596.682 118.881L596.475 118.778ZM618.158 196.241C618.158 216.898 606.284 229.705 587.08 230.119C569.217 229.809 556.724 216.175 556.724 196.758V177.237C556.724 157.613 569.321 143.772 587.389 143.359C606.387 143.669 618.158 156.58 618.158 177.237V196.241ZM732.249 118.778C731.63 118.778 731.01 118.881 730.391 118.881C729.771 118.881 729.152 118.778 728.532 118.778C691.672 118.778 668.854 141.81 668.854 178.786V196.964C668.854 232.597 691.982 254.7 729.048 254.7C729.874 254.7 730.597 254.7 731.32 254.597C731.836 254.597 732.249 254.7 732.765 254.7C757.649 254.7 774.995 245.611 786.042 226.813L764.05 214.109C756.719 224.954 746.911 233.114 732.869 233.114C714.077 233.114 702.823 221.546 702.823 202.025V196.861H789.966V175.378C789.966 140.88 767.354 118.674 732.249 118.674V118.778ZM702.72 175.997V172.899C702.72 152.242 712.528 140.674 730.391 139.848C747.53 140.674 757.855 152.035 757.855 170.73V175.894H702.72V175.997Z" fill="white"/>
<path d="M280.943 124.768C287.861 104.008 285.486 81.2851 274.438 62.384C257.815 33.4643 224.362 18.5913 191.735 25.5113C177.177 9.19234 156.32 -0.103288 134.431 -2.84942e-06C101.082 -2.84942e-06 71.449 21.4832 61.124 53.1917C39.648 57.6329 21.1662 71.0599 10.325 90.0643C-6.40152 118.984 -2.58128 155.34 19.824 180.129C12.9062 200.889 15.281 223.612 26.3287 242.409C42.952 271.432 76.405 286.305 109.135 279.385C123.59 295.704 144.447 305.103 166.336 305C199.685 305 229.318 283.517 239.643 251.808C261.119 247.367 279.601 233.94 290.339 214.936C307.169 186.016 303.348 149.66 280.943 124.871V124.768ZM257.196 72.4026C263.804 83.9705 266.282 97.5008 264.01 110.618C263.597 110.308 262.771 109.895 262.255 109.585L201.544 74.4683C198.446 72.7125 194.626 72.7125 191.529 74.4683L120.389 115.576V85.4165L179.139 51.4358C206.5 35.6333 241.398 45.0322 257.196 72.4026ZM120.389 135.097L150.332 117.745L180.274 135.097V169.697L150.332 187.049L120.389 169.697V135.097ZM134.328 19.934C147.751 19.934 160.657 24.5818 170.982 33.1544C170.569 33.361 169.743 33.8774 169.123 34.1873L108.412 69.2008C105.315 70.9567 103.456 74.2618 103.456 77.8767V160.091L77.3342 145.012V77.0505C77.3342 45.4453 102.837 19.934 134.431 19.8307L134.328 19.934ZM27.671 100.083C34.3822 88.5151 44.8105 79.6326 57.407 74.9848V147.181C57.407 150.796 59.2655 153.998 62.363 155.857L133.399 196.861L107.173 212.044L48.5275 178.166C21.2695 162.364 11.8737 127.453 27.671 100.083ZM43.6747 232.597C36.9635 221.133 34.5887 207.499 36.8602 194.382C37.2732 194.692 38.0992 195.105 38.6155 195.415L99.3265 230.532C102.424 232.287 106.244 232.287 109.342 230.532L180.378 189.424V219.583L121.628 253.461C94.2672 269.16 59.3687 259.865 43.5715 232.597H43.6747ZM166.439 285.066C153.12 285.066 140.11 280.418 129.888 271.846C130.301 271.639 131.231 271.123 131.747 270.813L192.458 235.799C195.555 234.043 197.517 230.738 197.414 227.123V145.012L223.536 160.091V227.95C223.536 259.555 197.93 285.169 166.439 285.169V285.066ZM273.199 204.917C266.488 216.485 255.957 225.367 243.463 229.912V157.716C243.463 154.101 241.605 150.796 238.507 149.04L167.368 107.933L193.49 92.853L252.24 126.73C279.601 142.533 288.893 177.443 273.096 204.814L273.199 204.917Z" fill="white"/>
</g>
<defs>
<clipPath id="clip0_2_10">
<rect width="1239" height="305" fill="white"/>
</clipPath>
</defs>
</svg>
